<?xml version="1.0" standalone="no"?>
 <!DOCTYPE svg PUBLIC "-//W3C//DTD SVG 1.1//EN" 
 "http://www.w3.org/Graphics/SVG/1.1/DTD/svg11.dtd"> 
<svg
  xmlns:svg="http://www.w3.org/2000/svg"
  xmlns="http://www.w3.org/2000/svg"
  xmlns:xlink="http://www.w3.org/1999/xlink"
  version="1.1"
  width="27mm" height="17.5mm" viewBox="-13.5 -8.75 27 17.5">
<title>SVG Image created as vm_rotary_button_0-F_Cu.svg date 2025/04/07 01:40:12 </title>
  <desc>Image generated by PCBNEW </desc>
<g style="fill:#000000; fill-opacity:1.0000;stroke:#000000; stroke-opacity:1.0000;
stroke-linecap:round; stroke-linejoin:round;"
 transform="translate(0 0) scale(1 1)">
</g>
<g style="fill:#C83434; fill-opacity:1.0000; stroke:none;">
<circle cx="-4.5000" cy="-8.2500" r="0.0625" /> 
</g>
<g style="fill:#C83434; fill-opacity:1.0000; stroke:none;">
<circle cx="-13.0000" cy="-2.5000" r="0.0625" /> 
<path style="fill:#C83434; fill-opacity:1.0000; stroke:none;fill-rule:evenodd;"
d="M -4.0568,-7.2591
-4.0437,-7.3252
-4.0062,-7.3812
-3.9502,-7.4187
-3.8841,-7.4318
-3.3659,-7.4318
-3.2998,-7.4187
-3.2438,-7.3812
-3.2063,-7.3252
-3.1932,-7.2591
-3.1932,-6.7409
-3.2063,-6.6748
-3.2438,-6.6188
-3.2998,-6.5813
-3.3659,-6.5682
-3.8841,-6.5682
-3.9502,-6.5813
-4.0062,-6.6188
-4.0437,-6.6748
-4.0568,-6.7409
Z" /> 
</g>
<g style="fill:#C83434; fill-opacity:1.0000; stroke:none;">
<circle cx="-3.6250" cy="-5.4252" r="0.4318" /> 
</g>
<g style="fill:#C83434; fill-opacity:1.0000; stroke:none;">
<circle cx="-4.8950" cy="-7.0000" r="0.4318" /> 
</g>
<g style="fill:#C83434; fill-opacity:1.0000; stroke:none;">
<circle cx="-4.8950" cy="-5.4252" r="0.4318" /> 
</g>
<g style="fill:#C83434; fill-opacity:1.0000; stroke:none;">
<circle cx="-6.1650" cy="-7.0000" r="0.4318" /> 
<path style="fill:#C83434; fill-opacity:1.0000; stroke:none;fill-rule:evenodd;"
d="M -8.7700,-4.8450
-9.6300,-4.8450
-9.6300,-5.6550
-8.7700,-5.6550
Z" /> 
<path style="fill:#C83434; fill-opacity:1.0000; stroke:none;fill-rule:evenodd;"
d="M -8.7700,-6.3450
-9.6300,-6.3450
-9.6300,-7.1550
-8.7700,-7.1550
Z" /> 
</g>
<g style="fill:#C83434; fill-opacity:1.0000; stroke:none;">
<circle cx="-6.5000" cy="-8.2500" r="0.0625" /> 
<path style="fill:#C83434; fill-opacity:1.0000; stroke:none;fill-rule:evenodd;"
d="M -10.3000,-1.7000
-10.3000,-0.7000
-11.0000,-0.7000
-11.0000,-1.7000
Z" /> 
<path style="fill:#C83434; fill-opacity:1.0000; stroke:none;fill-rule:evenodd;"
d="M -11.2500,-1.7000
-11.2500,-0.7000
-11.9500,-0.7000
-11.9500,-1.7000
Z" /> 
<path style="fill:#C83434; fill-opacity:1.0000; stroke:none;fill-rule:evenodd;"
d="M -12.2000,-1.7000
-12.2000,-0.7000
-12.9000,-0.7000
-12.9000,-1.7000
Z" /> 
<path style="fill:#C83434; fill-opacity:1.0000; stroke:none;fill-rule:evenodd;"
d="M -12.2000,0.7000
-12.2000,1.7000
-12.9000,1.7000
-12.9000,0.7000
Z" /> 
<path style="fill:#C83434; fill-opacity:1.0000; stroke:none;fill-rule:evenodd;"
d="M -10.3000,0.7000
-10.3000,1.7000
-11.0000,1.7000
-11.0000,0.7000
Z" /> 
</g>
<g style="fill:#C83434; fill-opacity:1.0000; stroke:none;">
<circle cx="-8.5000" cy="-8.2500" r="0.0625" /> 
<path style="fill:#C83434; fill-opacity:1.0000; stroke:none;fill-rule:evenodd;"
d="M -10.1500,5.6000
-10.9500,5.6000
-10.9500,4.8000
-10.1500,4.8000
Z" /> 
<path style="fill:#C83434; fill-opacity:1.0000; stroke:none;fill-rule:evenodd;"
d="M -11.8500,5.6000
-12.6500,5.6000
-12.6500,4.8000
-11.8500,4.8000
Z" /> 
<path style="fill:#C83434; fill-opacity:1.0000; stroke:none;fill-rule:evenodd;"
d="M -10.3700,-4.8450
-11.2300,-4.8450
-11.2300,-5.6550
-10.3700,-5.6550
Z" /> 
<path style="fill:#C83434; fill-opacity:1.0000; stroke:none;fill-rule:evenodd;"
d="M -10.3700,-6.3450
-11.2300,-6.3450
-11.2300,-7.1550
-10.3700,-7.1550
Z" /> 
<path style="fill:#C83434; fill-opacity:1.0000; stroke:none;fill-rule:evenodd;"
d="M -1.6340,-5.5700
-1.6340,-6.4300
-0.8240,-6.4300
-0.8240,-5.5700
Z" /> 
<path style="fill:#C83434; fill-opacity:1.0000; stroke:none;fill-rule:evenodd;"
d="M -0.1340,-5.5700
-0.1340,-6.4300
0.6760,-6.4300
0.6760,-5.5700
Z" /> 
<path style="fill:#C83434; fill-opacity:1.0000; stroke:none;fill-rule:evenodd;"
d="M -10.3000,2.1500
-10.3000,3.0500
-11.1000,3.0500
-11.1000,2.1500
Z" /> 
<path style="fill:#C83434; fill-opacity:1.0000; stroke:none;fill-rule:evenodd;"
d="M -11.7000,2.1500
-11.7000,3.0500
-12.5000,3.0500
-12.5000,2.1500
Z" /> 
</g>
<g style="fill:none; 
stroke:#C83434; stroke-width:0.3600; stroke-opacity:1; 
stroke-linecap:round; stroke-linejoin:round;">
<path d="M-9.4100 2.1800
L-9.4100 3.5600
" />
<path d="M-8.7600 2.1800
L-8.7600 3.5600
" />
<path d="M-8.1100 2.1800
L-8.1100 3.5600
" />
<path d="M-7.4600 2.1800
L-7.4600 3.5600
" />
<path d="M-6.8000 2.1800
L-6.8000 3.5600
" />
<path d="M-6.1500 2.1800
L-6.1500 3.5600
" />
<path d="M-5.5000 2.1800
L-5.5000 3.5600
" />
<path d="M-4.8500 2.1800
L-4.8500 3.5600
" />
<path d="M-4.2000 2.1800
L-4.2000 3.5600
" />
<path d="M-3.5500 2.1800
L-3.5500 3.5600
" />
<path d="M-3.5500 -3.5600
L-3.5500 -2.1800
" />
<path d="M-4.2000 -3.5600
L-4.2000 -2.1800
" />
<path d="M-4.8500 -3.5600
L-4.8500 -2.1800
" />
<path d="M-5.5000 -3.5600
L-5.5000 -2.1800
" />
<path d="M-6.1500 -3.5600
L-6.1500 -2.1800
" />
<path d="M-6.8000 -3.5600
L-6.8000 -2.1800
" />
<path d="M-7.4600 -3.5600
L-7.4600 -2.1800
" />
<path d="M-8.1100 -3.5600
L-8.1100 -2.1800
" />
<path d="M-8.7600 -3.5600
L-8.7600 -2.1800
" />
<path d="M-9.4100 -3.5600
L-9.4100 -2.1800
" />
</g>
<g style="fill:none; 
stroke:#C83434; stroke-width:2.9000; stroke-opacity:1; 
stroke-linecap:round; stroke-linejoin:round;">
<path d="M11.1010 0.6000
L11.1010 0.3000
" />
<path d="M-0.1490 0.6000
L-0.1490 0.3000
" />
</g>
<g style="fill:#C83434; fill-opacity:1.0000; stroke:none;">
<circle cx="11.0210" cy="4.6000" r="0.8500" /> 
</g>
<g style="fill:#C83434; fill-opacity:1.0000; stroke:none;">
<circle cx="-0.0790" cy="4.6000" r="0.8500" /> 
</g>
<g style="fill:#C83434; fill-opacity:1.0000; stroke:none;">
<circle cx="11.0210" cy="-3.7000" r="0.8500" /> 
</g>
<g style="fill:#C83434; fill-opacity:1.0000; stroke:none;">
<circle cx="-0.4790" cy="-3.0000" r="0.8500" /> 
</g>
<g style="fill:#C83434; fill-opacity:1.0000; stroke:none;">
<circle cx="5.4710" cy="7.3000" r="0.8500" /> 
<path style="fill:#C83434; fill-opacity:1.0000; stroke:none;fill-rule:evenodd;"
d="M -1.6340,-7.0700
-1.6340,-7.9300
-0.8240,-7.9300
-0.8240,-7.0700
Z" /> 
<path style="fill:#C83434; fill-opacity:1.0000; stroke:none;fill-rule:evenodd;"
d="M -0.1340,-7.0700
-0.1340,-7.9300
0.6760,-7.9300
0.6760,-7.0700
Z" /> 
<path style="fill:#C83434; fill-opacity:1.0000; stroke:none;fill-rule:evenodd;"
d="M 0.5700,-5.2000
0.5700,-4.3000
-0.2300,-4.3000
-0.2300,-5.2000
Z" /> 
<path style="fill:#C83434; fill-opacity:1.0000; stroke:none;fill-rule:evenodd;"
d="M -0.8300,-5.2000
-0.8300,-4.3000
-1.6300,-4.3000
-1.6300,-5.2000
Z" /> 
<path style="fill:#C83434; fill-opacity:1.0000; stroke:none;fill-rule:evenodd;"
d="M -3.6850,6.1200
-3.6850,7.4800
-4.9150,7.4800
-4.9150,6.1200
Z" /> 
<path style="fill:#C83434; fill-opacity:1.0000; stroke:none;fill-rule:evenodd;"
d="M -8.0450,6.1200
-8.0450,7.4800
-9.2750,7.4800
-9.2750,6.1200
Z" /> 
</g>
<g style="fill:#C83434; fill-opacity:1.0000; stroke:none;">
<circle cx="-13.0000" cy="2.5000" r="0.0625" /> 
<path style="fill:#C83434; fill-opacity:1.0000; stroke:none;fill-rule:evenodd;"
d="M 6.6760,-6.6800
6.6760,-5.8200
5.8660,-5.8200
5.8660,-6.6800
Z" /> 
<path style="fill:#C83434; fill-opacity:1.0000; stroke:none;fill-rule:evenodd;"
d="M 5.1760,-6.6800
5.1760,-5.8200
4.3660,-5.8200
4.3660,-6.6800
Z" /> 
<path style="fill:#C83434; fill-opacity:1.0000; stroke:none;fill-rule:evenodd;"
d="M 6.6760,-7.9300
6.6760,-7.0700
5.8660,-7.0700
5.8660,-7.9300
Z" /> 
<path style="fill:#C83434; fill-opacity:1.0000; stroke:none;fill-rule:evenodd;"
d="M 5.1760,-7.9300
5.1760,-7.0700
4.3660,-7.0700
4.3660,-7.9300
Z" /> 
<path style="fill:#C83434; fill-opacity:1.0000; stroke:none;fill-rule:evenodd;"
d="M -10.1450,-4.3300
-10.1450,-3.4700
-10.9550,-3.4700
-10.9550,-4.3300
Z" /> 
<path style="fill:#C83434; fill-opacity:1.0000; stroke:none;fill-rule:evenodd;"
d="M -11.6450,-4.3300
-11.6450,-3.4700
-12.4550,-3.4700
-12.4550,-4.3300
Z" /> 
<path style="fill:#C83434; fill-opacity:1.0000; stroke:none;fill-rule:evenodd;"
d="M -7.6000,5.0500
-7.6000,4.1500
-6.8000,4.1500
-6.8000,5.0500
Z" /> 
<path style="fill:#C83434; fill-opacity:1.0000; stroke:none;fill-rule:evenodd;"
d="M -6.2000,5.0500
-6.2000,4.1500
-5.4000,4.1500
-5.4000,5.0500
Z" /> 
</g>
<g style="fill:#C83434; fill-opacity:1.0000; stroke:none;">
<circle cx="-13.0000" cy="0.0000" r="0.0625" /> 
<path style="fill:#C83434; fill-opacity:1.0000; stroke:none;fill-rule:evenodd;"
d="M -10.2000,-3.0500
-10.2000,-2.1500
-11.0000,-2.1500
-11.0000,-3.0500
Z" /> 
<path style="fill:#C83434; fill-opacity:1.0000; stroke:none;fill-rule:evenodd;"
d="M -11.6000,-3.0500
-11.6000,-2.1500
-12.4000,-2.1500
-12.4000,-3.0500
Z" /> 
<path style="fill:#C83434; fill-opacity:1.0000; stroke:none;fill-rule:evenodd;"
d="M -10.2450,3.4700
-10.2450,4.3300
-11.0550,4.3300
-11.0550,3.4700
Z" /> 
<path style="fill:#C83434; fill-opacity:1.0000; stroke:none;fill-rule:evenodd;"
d="M -11.7450,3.4700
-11.7450,4.3300
-12.5550,4.3300
-12.5550,3.4700
Z" /> 
<path style="fill:#C83434; fill-opacity:1.0000; stroke:none;fill-rule:evenodd;"
d="M 1.2200,-6.5500
1.2200,-7.4500
2.0200,-7.4500
2.0200,-6.5500
Z" /> 
<path style="fill:#C83434; fill-opacity:1.0000; stroke:none;fill-rule:evenodd;"
d="M 2.6200,-6.5500
2.6200,-7.4500
3.4200,-7.4500
3.4200,-6.5500
Z" /> 
<path style="fill:#C83434; fill-opacity:1.0000; stroke:none;fill-rule:evenodd;"
d="M -12.8750,-8.0700
-12.1250,-8.0700
-12.1250,-7.0700
-12.8750,-7.0700
Z" /> 
<path style="fill:#C83434; fill-opacity:1.0000; stroke:none;fill-rule:evenodd;"
d="M -12.8750,-5.7300
-12.1250,-5.7300
-12.1250,-4.7300
-12.8750,-4.7300
Z" /> 
</g>
<g style="fill:#C83434; fill-opacity:1.0000; stroke:none;">
<circle cx="5.6210" cy="5.6000" r="0.2250" /> 
</g>
<g style="fill:#C83434; fill-opacity:1.0000; stroke:none;">
<circle cx="-11.5000" cy="-2.0000" r="0.2250" /> 
</g>
<g style="fill:#C83434; fill-opacity:1.0000; stroke:none;">
<circle cx="-5.0000" cy="4.5000" r="0.2250" /> 
</g>
<g style="fill:#C83434; fill-opacity:1.0000; stroke:none;">
<circle cx="-11.5000" cy="5.7500" r="0.2250" /> 
</g>
<g style="fill:#C83434; fill-opacity:1.0000; stroke:none;">
<circle cx="-5.2500" cy="6.7500" r="0.2250" /> 
</g>
<g style="fill:#C83434; fill-opacity:1.0000; stroke:none;">
<circle cx="-11.5000" cy="2.0000" r="0.2250" /> 
</g>
<g style="fill:#C83434; fill-opacity:1.0000; stroke:none;">
<circle cx="0.9210" cy="-4.1000" r="0.2250" /> 
</g>
<g style="fill:#C83434; fill-opacity:1.0000; stroke:none;">
<circle cx="9.2210" cy="-3.6000" r="0.2250" /> 
</g>
<g style="fill:#C83434; fill-opacity:1.0000; stroke:none;">
<circle cx="3.9210" cy="-6.9000" r="0.2250" /> 
</g>
<g style="fill:#C83434; fill-opacity:1.0000; stroke:none;">
<circle cx="-8.1000" cy="-0.3000" r="0.2250" /> 
</g>
<g style="fill:#C83434; fill-opacity:1.0000; stroke:none;">
<circle cx="-7.3750" cy="-6.1580" r="0.2250" /> 
</g>
<g style="fill:#C83434; fill-opacity:1.0000; stroke:none;">
<circle cx="-7.2000" cy="6.0000" r="0.2250" /> 
</g>
<g style="fill:#C83434; fill-opacity:1.0000; stroke:none;">
<circle cx="-6.5000" cy="1.5000" r="0.2250" /> 
</g>
<g style="fill:#C83434; fill-opacity:1.0000; stroke:none;">
<circle cx="-12.0000" cy="-6.5000" r="0.2250" /> 
</g>
<g style="fill:none; 
stroke:#C83434; stroke-width:0.2000; stroke-opacity:1; 
stroke-linecap:round; stroke-linejoin:round;">
<path d="M11.0210 -3.7000
L9.3210 -3.7000
" />
<path d="M0.2710 -4.7500
L0.9210 -4.1000
" />
<path d="M-11.5000 -2.0000
L-11.5000 -2.1000
" />
<path d="M-5.2000 6.8000
L-5.2500 6.7500
" />
<path d="M0.1710 -4.7500
L0.2710 -4.7500
" />
<path d="M-12.5500 1.2000
L-12.3000 1.2000
" />
<path d="M3.8210 -7.0000
L3.9210 -6.9000
" />
<path d="M-11.5000 2.0000
L-12.1000 2.6000
" />
<path d="M-12.3000 1.2000
L-11.5000 2.0000
" />
<path d="M5.6210 7.1500
L5.4710 7.3000
" />
<path d="M5.6210 5.6000
L5.6210 7.1500
" />
<path d="M-11.5000 -1.3000
L-11.6000 -1.2000
" />
<path d="M-12.0500 5.2000
L-11.5000 5.7500
" />
<path d="M-5.8000 4.6000
L-5.1000 4.6000
" />
<path d="M-6.8000 3.6000
L-5.8000 4.6000
" />
<path d="M-13.0000 2.5000
L-12.2000 2.5000
" />
<path d="M-11.5000 -2.1000
L-12.0000 -2.6000
" />
<path d="M9.3210 -3.7000
L9.2210 -3.6000
" />
<path d="M-6.8000 2.8700
L-6.8000 3.6000
" />
<path d="M-11.5000 -2.0000
L-11.5000 -1.3000
" />
<path d="M-12.2500 5.2000
L-12.0500 5.2000
" />
<path d="M-12.2000 2.5000
L-12.1000 2.6000
" />
<path d="M-4.3000 6.8000
L-5.2000 6.8000
" />
<path d="M3.0210 -7.0000
L3.8210 -7.0000
" />
<path d="M-5.1000 4.6000
L-5.0000 4.5000
" />
<path d="M-10.6500 1.2000
L-10.6500 2.5500
" />
<path d="M-4.4670 -6.1580
L-7.3750 -6.1580
" />
<path d="M-3.6250 -7.0000
L-4.4670 -6.1580
" />
<path d="M-7.4600 4.3400
L-7.2000 4.6000
" />
<path d="M-7.4600 2.8700
L-7.4600 4.3400
" />
<path d="M6.2710 -7.5000
L6.2710 -6.2500
" />
<path d="M-10.6500 2.5500
L-10.7000 2.6000
" />
<path d="M-10.4500 1.1500
L-10.4500 1.2000
" />
<path d="M-10.8500 5.2000
L-10.5500 5.2000
" />
<path d="M-12.1500 3.9000
L-10.8500 5.2000
" />
<path d="M-4.3839 -4.6663
L-7.3837 -4.6663
" />
<path d="M-3.6250 -5.4252
L-4.3839 -4.6663
" />
<path d="M-9.2000 -5.2500
L-8.1100 -4.1600
" />
<path d="M-7.3837 -4.6663
L-8.1100 -3.9400
" />
<path d="M-8.1100 -3.9400
L-8.1100 -2.8700
" />
<path d="M-8.1100 -4.1600
L-8.1100 -2.8700
" />
<path d="M-10.0940 -5.9560
L-10.8000 -5.2500
" />
<path d="M-7.6677 -5.4252
L-4.8950 -5.4252
" />
<path d="M-8.7600 -3.9400
L-8.7600 -2.8700
" />
<path d="M-9.2540 -4.0410
L-8.8610 -4.0410
" />
<path d="M-10.4630 -5.2500
L-9.2540 -4.0410
" />
<path d="M-10.6000 -5.2500
L-10.4630 -5.2500
" />
<path d="M-8.8610 -4.0410
L-8.7600 -3.9400
" />
<path d="M-8.1985 -5.9560
L-10.0940 -5.9560
" />
<path d="M-8.1985 -5.9560
L-7.6677 -5.4252
" />
<path d="M-6.1500 2.8700
L-6.1500 1.8500
" />
<path d="M-6.1500 1.8500
L-6.5000 1.5000
" />
<path d="M-12.5000 -6.0000
L-12.0000 -6.5000
" />
<path d="M-12.5000 -5.2300
L-12.5000 -6.0000
" />
<path d="M-10.6500 3.9000
L-10.4400 3.9000
" />
<path d="M-10.4400 3.9000
L-9.4100 2.8700
" />
<path d="M-8.7600 2.8700
L-8.7600 6.7000
" />
<path d="M-8.7600 6.7000
L-8.6600 6.8000
" />
<path d="M-2.6843 -2.7500
L-2.5000 -2.7500
" />
<path d="M-4.2000 -3.9400
L-4.0990 -4.0410
" />
<path d="M-4.0990 -4.0410
L-3.3508 -4.0410
" />
<path d="M-3.0690 -3.7592
L-3.0690 -3.1347
" />
<path d="M-4.2000 -2.8700
L-4.2000 -3.9400
" />
<path d="M-3.0690 -3.1347
L-2.6843 -2.7500
" />
<path d="M-3.3508 -4.0410
L-3.0690 -3.7592
" />
<path d="M-6.9050 0.7500
L-2.5000 0.7500
" />
<path d="M-8.1100 2.8700
L-8.1100 1.9550
" />
<path d="M-8.1100 1.9550
L-6.9050 0.7500
" />
<path d="M-3.3508 4.0410
L-3.0690 3.7592
" />
<path d="M-3.0690 3.7592
L-3.0690 3.1997
" />
<path d="M-2.6193 2.7500
L-2.5000 2.7500
" />
<path d="M-4.2000 2.8700
L-4.2000 3.9400
" />
<path d="M-4.2000 3.9400
L-4.0990 4.0410
" />
<path d="M-4.0990 4.0410
L-3.3508 4.0410
" />
<path d="M-3.0690 3.1997
L-2.6193 2.7500
" />
<path d="M-3.3010 1.6990
L-3.2500 1.7500
" />
<path d="M-4.8500 1.8000
L-4.7490 1.6990
" />
<path d="M-4.7490 1.6990
L-3.3010 1.6990
" />
<path d="M-3.2500 1.7500
L-2.5000 1.7500
" />
<path d="M-4.8500 2.8700
L-4.8500 1.8000
" />
<path d="M-6.8000 -1.6500
L-5.4000 -0.2500
" />
<path d="M-5.4000 -0.2500
L-2.5000 -0.2500
" />
<path d="M-6.8000 -2.8700
L-6.8000 -1.6500
" />
<path d="M-6.1500 -1.5671
L-5.3329 -0.7500
" />
<path d="M-5.3329 -0.7500
L-2.5000 -0.7500
" />
<path d="M-6.1500 -2.8700
L-6.1500 -1.5671
" />
<path d="M-3.5500 2.8700
L-3.3700 2.8700
" />
<path d="M-2.7500 2.2500
L-2.5000 2.2500
" />
<path d="M-3.3700 2.8700
L-2.7500 2.2500
" />
<path d="M-7.4600 -1.7100
L-5.5000 0.2500
" />
<path d="M-5.5000 0.2500
L-2.5000 0.2500
" />
<path d="M-7.4600 -2.8700
L-7.4600 -1.7100
" />
<path d="M-3.3700 -2.8700
L-2.7500 -2.2500
" />
<path d="M-2.7500 -2.2500
L-2.5000 -2.2500
" />
<path d="M-3.5500 -2.8700
L-3.3700 -2.8700
" />
<path d="M-12.2510 -0.3990
L-12.0000 -0.3990
" />
<path d="M-10.6500 -0.6980
L-10.6500 -1.2000
" />
<path d="M-12.2510 -0.2490
L-12.5000 0.0000
" />
<path d="M-10.9490 -0.3990
L-10.6500 -0.6980
" />
<path d="M-10.6500 -1.2000
L-10.6500 -2.5500
" />
<path d="M-12.2510 -0.3990
L-12.2510 -0.2490
" />
<path d="M-12.5500 -1.2000
L-12.5500 -0.6980
" />
<path d="M-12.5500 -0.6980
L-12.2510 -0.3990
" />
<path d="M-12.0000 -0.3990
L-10.9490 -0.3990
" />
<path d="M-10.6500 -2.5500
L-10.6000 -2.6000
" />
<path d="M-13.0000 0.0000
L-12.5000 0.0000
" />
<path d="M-13.0000 -2.9500
L-13.0000 -2.5000
" />
<path d="M-12.0500 -3.9000
L-13.0000 -2.9500
" />
<path d="M-9.5000 -3.7000
L-9.5000 -2.9600
" />
<path d="M-9.5980 -3.7980
L-9.5000 -3.7000
" />
<path d="M-10.4480 -3.7980
L-9.5980 -3.7980
" />
<path d="M-9.5000 -2.9600
L-9.4100 -2.8700
" />
<path d="M-10.5500 -3.9000
L-10.4480 -3.7980
" />
<path d="M-9.5453 -8.2500
L-8.5000 -8.2500
" />
<path d="M-10.2253 -7.5700
L-9.5453 -8.2500
" />
<path d="M-12.5000 -7.5700
L-10.2253 -7.5700
" />
<path d="M-10.8000 -6.7500
L-10.4796 -6.7500
" />
<path d="M-10.4796 -6.7500
L-9.3806 -7.8490
" />
<path d="M-6.9945 -8.2500
L-6.5000 -8.2500
" />
<path d="M-7.3955 -7.8490
L-6.9945 -8.2500
" />
<path d="M-9.3806 -7.8490
L-7.3955 -7.8490
" />
<path d="M-9.2000 -6.7500
L-7.9288 -6.7500
" />
<path d="M-7.9288 -6.7500
L-6.8298 -7.8490
" />
<path d="M-4.9010 -7.8490
L-4.5000 -8.2500
" />
<path d="M-6.8298 -7.8490
L-4.9010 -7.8490
" />
<path d="M-2.0780 -2.0839
L-2.4119 -1.7500
" />
<path d="M-3.3010 -1.6990
L-4.7490 -1.6990
" />
<path d="M-1.2290 -7.5000
L-0.4980 -6.7690
" />
<path d="M-0.4980 -6.7690
L1.3900 -6.7690
" />
<path d="M-1.2290 -7.5000
L-1.8340 -7.5000
" />
<path d="M1.3900 -6.7690
L1.6210 -7.0000
" />
<path d="M-1.8340 -7.5000
L-2.0780 -7.2560
" />
<path d="M-3.2500 -1.7500
L-3.3010 -1.6990
" />
<path d="M-2.4119 -1.7500
L-3.2500 -1.7500
" />
<path d="M-2.0780 -7.2560
L-2.0780 -2.0839
" />
<path d="M-4.7490 -1.6990
L-4.8500 -1.8000
" />
<path d="M-4.8500 -1.8000
L-4.8500 -2.8700
" />
<path d="M-1.6300 -4.3490
L-1.6300 -1.9648
" />
<path d="M-1.2290 -6.2500
L-1.2290 -5.0000
" />
<path d="M-1.2290 -4.7500
L-1.6300 -4.3490
" />
<path d="M-5.2658 -1.2500
L-5.5000 -1.4842
" />
<path d="M-1.6300 -1.9648
L-2.3448 -1.2500
" />
<path d="M-5.5000 -1.4842
L-5.5000 -2.8700
" />
<path d="M-2.3448 -1.2500
L-5.2658 -1.2500
" />
<path d="M4.9580 -7.5000
L4.7710 -7.5000
" />
<path d="M5.4770 -6.9810
L4.9580 -7.5000
" />
<path d="M0.2710 -7.5000
L0.5220 -7.7510
" />
<path d="M0.5220 -7.7510
L4.5200 -7.7510
" />
<path d="M5.4770 -0.9440
L5.4770 -6.9810
" />
<path d="M11.0210 4.6000
L5.4770 -0.9440
" />
<path d="M4.5200 -7.7510
L4.7710 -7.5000
" />
<path d="M1.6020 -4.6690
L0.2710 -6.0000
" />
<path d="M1.6020 2.9190
L1.6020 -4.6690
" />
<path d="M-0.0790 4.6000
L1.6020 2.9190
" />
<path d="M0.2710 -6.2500
L4.7710 -6.2500
" />
<path d="M-5.5000 1.8000
L-5.5000 2.8700
" />
<path d="M-0.5790 -1.8463
L-2.0780 -0.3473
" />
<path d="M-2.0780 1.0780
L-2.2500 1.2500
" />
<path d="M-2.0780 -0.3473
L-2.0780 1.0780
" />
<path d="M-2.2500 1.2500
L-4.9500 1.2500
" />
<path d="M-4.9500 1.2500
L-5.5000 1.8000
" />
<path d="M-0.5790 -3.0000
L-0.5790 -1.8463
" />
<path style="fill:#C83434; fill-opacity:1.0000; stroke:none;fill-rule:evenodd;"
d="M 12.9778,-8.2278
12.9995,-8.1755
12.9995,8.1755
12.9778,8.2278
12.9255,8.2495
6.1848,8.2495
6.1324,8.2278
6.1108,8.1755
6.1324,8.1232
6.1381,8.1186
6.1378,8.1183
6.1407,8.1160
6.2870,7.9697
6.2870,7.9697
6.4019,7.7976
6.4811,7.6064
6.5215,7.4035
6.5215,7.1965
6.4811,6.9936
6.4019,6.8024
6.2870,6.6303
6.1407,6.4840
5.9686,6.3691
5.9686,6.3691
5.9686,6.3691
5.9686,6.3691
5.9672,6.3685
5.9668,6.3681
5.9654,6.3673
5.9656,6.3669
5.9271,6.3284
5.9215,6.3001
5.9215,5.9319
5.9432,5.8796
5.9615,5.8613
6.0175,5.7642
6.0465,5.6560
6.0465,5.6560
6.0465,5.5440
6.0465,5.5440
6.0464,5.5436
6.0175,5.4358
5.9615,5.3387
5.8823,5.2595
5.8666,5.2505
5.7852,5.2035
5.7852,5.2035
5.6770,5.1745
5.6770,5.1745
5.5650,5.1745
5.5650,5.1745
5.4568,5.2035
5.4568,5.2035
5.3597,5.2595
5.2805,5.3387
5.2245,5.4358
5.2245,5.4358
5.1955,5.5440
5.1955,5.6560
5.2245,5.7642
5.2245,5.7642
5.2805,5.8613
5.2988,5.8796
5.3205,5.9319
5.3205,6.1981
5.2988,6.2504
5.2609,6.2707
5.1646,6.2899
5.1646,6.2899
4.9734,6.3691
4.8013,6.4840
4.8013,6.4840
4.6550,6.6303
4.6550,6.6303
4.5401,6.8024
4.4609,6.9936
4.4609,6.9936
4.4205,7.1965
4.4205,7.4035
4.4609,7.6064
4.4609,7.6064
4.5401,7.7976
4.6550,7.9697
4.8013,8.1160
4.8042,8.1183
4.8025,8.1203
4.8298,8.1610
4.8188,8.2165
4.7717,8.2481
4.7572,8.2495
-12.9255,8.2495
-12.9778,8.2278
-12.9995,8.1755
-12.9995,3.0691
-12.9778,3.0168
-12.9392,2.9978
-12.9394,2.9970
-12.9354,2.9959
-12.9352,2.9958
-12.9347,2.9957
-12.9347,2.9957
-12.8087,2.9619
-12.8087,2.9619
-12.8042,2.9601
-12.8032,2.9625
-12.7554,2.9562
-12.7104,2.9907
-12.7005,3.0277
-12.7005,3.0697
-12.6889,3.1282
-12.6422,3.1981
-12.6311,3.2537
-12.6626,3.3007
-12.6995,3.3254
-12.6996,3.3254
-12.7439,3.3918
-12.7439,3.3918
-12.7555,3.4503
-12.7555,4.3497
-12.7506,4.3744
-12.7439,4.4082
-12.7330,4.4245
-12.6996,4.4746
-12.6972,4.4762
-12.6956,4.4785
-12.6944,4.4797
-12.6946,4.4799
-12.6657,4.5232
-12.6767,4.5788
-12.7238,4.6103
-12.7250,4.6105
-12.7282,4.6111
-12.7946,4.6554
-12.7946,4.6554
-12.8389,4.7218
-12.8505,4.7803
-12.8505,5.6197
-12.8389,5.6782
-12.8094,5.7223
-12.7946,5.7446
-12.7504,5.7740
-12.7282,5.7889
-12.7282,5.7889
-12.7282,5.7889
-12.6697,5.8005
-11.9838,5.8005
-11.9314,5.8222
-11.9123,5.8553
-11.8965,5.9142
-11.8965,5.9142
-11.8612,5.9754
-11.8405,6.0113
-11.7613,6.0905
-11.6642,6.1465
-11.5560,6.1755
-11.5560,6.1755
-11.5560,6.1755
-11.4440,6.1755
-11.4440,6.1755
-11.3358,6.1465
-11.2387,6.0905
-11.1595,6.0113
-11.1035,5.9142
-11.0857,5.8479
-11.0513,5.8030
-10.9998,5.7945
-10.9697,5.8005
-10.9697,5.8005
-10.1303,5.8005
-10.1303,5.8005
-10.0718,5.7889
-10.0054,5.7446
-9.9611,5.6782
-9.9495,5.6197
-9.9495,4.7803
-9.9611,4.7218
-9.9734,4.7035
-9.9996,4.6642
-10.0054,4.6554
-10.0277,4.6406
-10.0718,4.6111
-10.0718,4.6111
-10.0746,4.6106
-10.0762,4.6103
-10.1233,4.5788
-10.1343,4.5232
-10.1054,4.4799
-10.1056,4.4797
-10.1044,4.4785
-10.1028,4.4762
-10.1004,4.4746
-10.0561,4.4082
-10.0445,4.3497
-10.0445,3.9601
-10.0228,3.9078
-9.8537,3.7387
-9.8014,3.7170
-9.7491,3.7387
-9.7373,3.7540
-9.7200,3.7840
-9.7145,3.7936
-9.6436,3.8645
-9.5569,3.9146
-9.4601,3.9405
-9.4601,3.9405
-9.4601,3.9405
-9.3599,3.9405
-9.3599,3.9405
-9.2631,3.9146
-9.1950,3.8752
-9.1722,3.8621
-9.1707,3.8646
-9.1249,3.8523
-9.0758,3.8806
-9.0605,3.9256
-9.0605,5.8455
-9.0822,5.8978
-9.1345,5.9195
-9.2947,5.9195
-9.3240,5.9253
-9.3532,5.9311
-9.4196,5.9754
-9.4196,5.9754
-9.4639,6.0418
-9.4755,6.1003
-9.4755,7.4997
-9.4639,7.5582
-9.4344,7.6023
-9.4196,7.6246
-9.3754,7.6540
-9.3532,7.6689
-9.3532,7.6689
-9.3532,7.6689
-9.2947,7.6805
-9.2947,7.6805
-8.0253,7.6805
-8.0253,7.6805
-7.9668,7.6689
-7.9004,7.6246
-7.8561,7.5582
-7.8445,7.4997
-7.8445,6.6940
-5.6755,6.6940
-5.6755,6.8060
-5.6465,6.9142
-5.6465,6.9142
-5.6465,6.9142
-5.5905,7.0113
-5.5113,7.0905
-5.4142,7.1465
-5.3060,7.1755
-5.3060,7.1755
-5.1895,7.1755
-5.1372,7.1972
-5.1155,7.2495
-5.1155,7.4997
-5.1039,7.5582
-5.0744,7.6023
-5.0596,7.6246
-5.0154,7.6540
-4.9932,7.6689
-4.9932,7.6689
-4.9932,7.6689
-4.9347,7.6805
-4.9347,7.6805
-3.6653,7.6805
-3.6653,7.6805
-3.6068,7.6689
-3.5404,7.6246
-3.4961,7.5582
-3.4845,7.4997
-3.4845,6.1003
-3.4961,6.0418
-3.5404,5.9754
-3.5627,5.9606
-3.6068,5.9311
-3.6068,5.9311
-3.6360,5.9253
-3.6653,5.9195
-4.9347,5.9195
-4.9640,5.9253
-4.9932,5.9311
-5.0596,5.9754
-5.0596,5.9754
-5.1039,6.0418
-5.1155,6.1003
-5.1155,6.2505
-5.1372,6.3028
-5.1895,6.3245
-5.3060,6.3245
-5.4142,6.3535
-5.4142,6.3535
-5.5113,6.4095
-5.5905,6.4887
-5.6465,6.5858
-5.6465,6.5858
-5.6755,6.6940
-7.8445,6.6940
-7.8445,6.1003
-7.8561,6.0418
-7.9004,5.9754
-7.9227,5.9606
-7.9668,5.9311
-7.9668,5.9311
-7.9960,5.9253
-8.0253,5.9195
-8.0253,5.9195
-8.3855,5.9195
-8.4378,5.8978
-8.4595,5.8455
-8.4595,5.0978
-8.1000,5.0978
-8.0936,5.1574
-8.0936,5.1574
-8.0434,5.2921
-8.0434,5.2921
-7.9572,5.4072
-7.8421,5.4934
-7.8421,5.4934
-7.7074,5.5436
-7.7074,5.5436
-7.6478,5.5500
-7.4500,5.5500
-7.4500,4.8500
-8.1000,4.8500
-8.1000,5.0978
-8.4595,5.0978
-8.4595,3.9256
-8.4378,3.8733
-8.3855,3.8516
-8.3490,3.8640
-8.3478,3.8621
-8.3250,3.8752
-8.2569,3.9146
-8.1601,3.9405
-8.1601,3.9405
-8.1553,3.9411
-8.1556,3.9432
-8.1098,3.9622
-8.0881,4.0145
-8.0928,4.0404
-8.0936,4.0426
-8.1000,4.1022
-8.1000,4.3500
-7.2740,4.3500
-7.2217,4.3717
-7.2000,4.4240
-7.2000,4.6000
-7.0240,4.6000
-6.9717,4.6217
-6.9500,4.6740
-6.9500,5.5500
-6.7522,5.5500
-6.6926,5.5436
-6.6926,5.5436
-6.5579,5.4934
-6.5579,5.4934
-6.4428,5.4072
-6.3566,5.2921
-6.3548,5.2870
-6.3162,5.2456
-6.2710,5.2403
-6.2197,5.2505
-6.2197,5.2505
-5.3803,5.2505
-5.3803,5.2505
-5.3218,5.2389
-5.2554,5.1946
-5.2111,5.1282
-5.1995,5.0697
-5.1995,4.9835
-5.1778,4.9312
-5.1255,4.9095
-5.1063,4.9120
-5.0700,4.9217
-5.0560,4.9255
-5.0560,4.9255
-5.0560,4.9255
-4.9440,4.9255
-4.9440,4.9255
-4.8358,4.8965
-4.7387,4.8405
-4.6595,4.7613
-4.6035,4.6642
-4.5745,4.5560
-4.5745,4.5560
-4.5745,4.4440
-4.5745,4.4440
-4.5841,4.4082
-4.6035,4.3358
-4.6595,4.2387
-4.7387,4.1595
-4.7688,4.1422
-4.8358,4.1035
-4.8358,4.1035
-4.8980,4.0868
-4.8980,4.0868
-4.9440,4.0745
-5.0560,4.0745
-5.1348,4.0956
-5.1475,4.0939
-5.1597,4.0979
-5.1720,4.0907
-5.1910,4.0882
-5.2102,4.0722
-5.2130,4.0689
-5.2554,4.0054
-5.2832,3.9869
-5.2899,3.9791
-5.2957,3.9612
-5.3062,3.9455
-5.3042,3.9352
-5.3074,3.9253
-5.2988,3.9084
-5.2952,3.8899
-5.2842,3.8797
-5.2817,3.8748
-5.2776,3.8734
-5.2706,3.8669
-5.2664,3.8645
-5.2273,3.8254
-5.1750,3.8038
-5.1227,3.8254
-5.0836,3.8645
-4.9969,3.9146
-4.9517,3.9267
-4.9001,3.9405
-4.8756,3.9405
-4.7999,3.9405
-4.7999,3.9405
-4.7031,3.9146
-4.6350,3.8752
-4.6122,3.8621
-4.6107,3.8646
-4.5649,3.8523
-4.5158,3.8806
-4.5005,3.9256
-4.5005,3.9796
-4.4800,4.0560
-4.4800,4.0560
-4.4706,4.0722
-4.4526,4.1035
-4.4405,4.1245
-4.2835,4.2815
-4.2835,4.2815
-4.2835,4.2815
-4.2353,4.3093
-4.2150,4.3210
-4.1386,4.3415
-4.1386,4.3415
-3.3112,4.3415
-3.3112,4.3415
-3.2348,4.3210
-3.1663,4.2815
-3.1103,4.2255
-2.8285,3.9437
-2.8035,3.9004
-2.7890,3.8752
-2.7685,3.7988
-2.7685,3.7988
-2.7685,3.3548
-2.7468,3.3025
-2.5165,3.0722
-2.4642,3.0505
-2.4604,3.0505
-2.4604,3.0505
-2.3840,3.0300
-2.3155,2.9905
-2.2595,2.9345
-2.2200,2.8660
-2.1995,2.7896
-2.1995,2.7896
-2.1995,2.7104
-2.1995,2.7104
-2.2200,2.6340
-2.2200,2.6340
-2.2595,2.5655
-2.2727,2.5523
-2.2944,2.5000
-2.2727,2.4477
-2.2595,2.4345
-2.2200,2.3660
-2.1995,2.2896
-2.1995,2.2896
-2.1995,2.2104
-2.1995,2.2104
-2.2200,2.1340
-2.2200,2.1340
-2.2377,2.1033
-2.2595,2.0655
-2.2727,2.0523
-2.2944,2.0000
-2.2727,1.9477
-2.2674,1.9424
-2.2595,1.9345
-2.2200,1.8660
-2.1995,1.7896
-2.1995,1.7896
-2.1995,1.7104
-2.1995,1.7104
-2.2005,1.7066
-2.2200,1.6340
-2.2211,1.6300
-2.2137,1.5738
-2.1687,1.5393
-2.1340,1.5300
-2.1340,1.5300
-2.1340,1.5300
-2.0655,1.4905
-2.0095,1.4345
-1.8375,1.2625
-1.8208,1.2336
-1.8129,1.2199
-1.7680,1.1854
-1.7118,1.1928
-1.6806,1.2313
-1.6797,1.2309
-1.6786,1.2336
-1.5606,1.4650
-1.5606,1.4651
-1.4079,1.6752
-1.4079,1.6752
-1.2242,1.8589
-1.2242,1.8589
-1.2242,1.8589
-1.0226,2.0054
-1.0141,2.0116
-0.7826,2.1296
-0.7826,2.1296
-0.7826,2.1296
-0.5355,2.2099
-0.5355,2.2099
-0.5355,2.2099
-0.3644,2.2370
-0.2789,2.2505
-0.2789,2.2505
-0.0191,2.2505
0.0450,2.2403
0.2375,2.2099
0.2375,2.2099
0.2375,2.2099
0.3779,2.1642
0.4846,2.1296
0.7161,2.0116
0.9262,1.8589
1.1099,1.6752
1.1676,1.5958
1.2159,1.5662
1.2710,1.5794
1.3006,1.6277
1.3015,1.6393
1.3015,2.7639
1.2798,2.8162
0.4595,3.6365
0.4072,3.6582
0.3788,3.6526
0.2274,3.5899
0.2274,3.5899
0.0745,3.5595
0.0245,3.5495
-0.1825,3.5495
-0.2226,3.5575
-0.3854,3.5899
-0.3854,3.5899
-0.5766,3.6691
-0.7487,3.7840
-0.7487,3.7840
-0.8950,3.9303
-0.8950,3.9303
-1.0099,4.1024
-1.0891,4.2936
-1.0891,4.2936
-1.1119,4.4082
-1.1295,4.4965
-1.1295,4.7035
-1.1259,4.7218
-1.0891,4.9064
-1.0891,4.9064
-1.0099,5.0976
-0.9018,5.2595
-0.8950,5.2697
-0.7487,5.4160
-0.5766,5.5309
-0.3854,5.6101
-0.1825,5.6505
-0.1825,5.6505
0.0245,5.6505
0.0245,5.6505
0.2274,5.6101
0.4186,5.5309
0.5907,5.4160
0.7370,5.2697
0.8519,5.0976
0.9311,4.9064
0.9715,4.7035
0.9715,4.4965
0.9311,4.2936
0.8684,4.1422
0.8684,4.0855
0.8844,4.0615
1.8425,3.1035
1.8707,3.0545
1.8820,3.0350
1.9025,2.9586
1.9025,2.9586
1.9025,-4.7086
1.9025,-4.7086
1.9020,-4.7103
1.8913,-4.7505
1.8820,-4.7850
1.8820,-4.7850
1.8425,-4.8535
0.8982,-5.7978
0.8765,-5.8501
0.8765,-5.8755
0.8982,-5.9278
0.9505,-5.9495
4.0915,-5.9495
4.1438,-5.9278
4.1655,-5.8755
4.1655,-5.8003
4.1733,-5.7613
4.1771,-5.7418
4.1966,-5.7126
4.2214,-5.6754
4.2304,-5.6695
4.2878,-5.6311
4.2878,-5.6311
4.2878,-5.6311
4.3463,-5.6195
5.1025,-5.6195
5.1548,-5.5978
5.1765,-5.5455
5.1765,-0.9044
5.1970,-0.8280
5.1970,-0.8280
5.2275,-0.7752
5.2275,-0.7752
5.2365,-0.7595
5.2365,-0.7595
10.0575,4.0615
10.0792,4.1138
10.0736,4.1422
10.0109,4.2936
10.0109,4.2936
9.9881,4.4082
9.9705,4.4965
9.9705,4.7035
9.9741,4.7218
10.0109,4.9064
10.0109,4.9064
10.0901,5.0976
10.1982,5.2595
10.2050,5.2697
10.3513,5.4160
10.5234,5.5309
10.7146,5.6101
10.9175,5.6505
10.9175,5.6505
11.1245,5.6505
11.1245,5.6505
11.3274,5.6101
11.5186,5.5309
11.6907,5.4160
11.8370,5.2697
11.9519,5.0976
12.0311,4.9064
12.0715,4.7035
12.0715,4.4965
12.0311,4.2936
11.9519,4.1024
11.8370,3.9303
11.6907,3.7840
11.6518,3.7581
11.5186,3.6691
11.3274,3.5899
11.3274,3.5899
11.1745,3.5595
11.1245,3.5495
10.9175,3.5495
10.8774,3.5575
10.7146,3.5899
10.7146,3.5899
10.5632,3.6526
10.5065,3.6526
10.4825,3.6365
7.0161,0.1701
9.4505,0.1701
9.4505,0.7299
9.4911,0.9865
9.4911,0.9865
9.5714,1.2336
9.5714,1.2336
9.6894,1.4650
9.6894,1.4651
9.8421,1.6752
9.8421,1.6752
10.0258,1.8589
10.0258,1.8589
10.0258,1.8589
10.2274,2.0054
10.2359,2.0116
10.4674,2.1296
10.4674,2.1296
10.4674,2.1296
10.7145,2.2099
10.7145,2.2099
10.7145,2.2099
10.8856,2.2370
10.9711,2.2505
10.9711,2.2505
11.2309,2.2505
11.2950,2.2403
11.4875,2.2099
11.4875,2.2099
11.4875,2.2099
11.6279,2.1642
11.7346,2.1296
11.9661,2.0116
12.1762,1.8589
12.3599,1.6752
12.5126,1.4651
12.6306,1.2336
12.6823,1.0745
12.7109,0.9865
12.7109,0.9865
12.7109,0.9865
12.7515,0.7299
12.7515,0.1701
12.7109,-0.0865
12.7109,-0.0865
12.7109,-0.0865
12.6306,-0.3336
12.6306,-0.3336
12.5630,-0.4662
12.5126,-0.5651
12.3599,-0.7752
12.1762,-0.9589
12.1762,-0.9589
12.1762,-0.9589
11.9661,-1.1116
11.9660,-1.1116
11.7346,-1.2296
11.7346,-1.2296
11.4875,-1.3099
11.4875,-1.3099
11.2309,-1.3505
11.2309,-1.3505
10.9711,-1.3505
10.9711,-1.3505
10.7145,-1.3099
10.7145,-1.3099
10.4674,-1.2296
10.4674,-1.2296
10.2360,-1.1116
10.2359,-1.1116
10.0258,-0.9589
10.0258,-0.9589
9.8421,-0.7752
9.8306,-0.7595
9.6894,-0.5651
9.6894,-0.5650
9.5714,-0.3336
9.5714,-0.3336
9.4911,-0.0865
9.4911,-0.0865
9.4505,0.1701
7.0161,0.1701
5.7992,-1.0468
5.7775,-1.0991
5.7775,-3.6560
8.7955,-3.6560
8.7955,-3.5440
8.8245,-3.4358
8.8245,-3.4358
8.8668,-3.3625
8.8805,-3.3387
8.9597,-3.2595
9.0568,-3.2035
9.1650,-3.1745
9.1650,-3.1745
9.1650,-3.1745
9.2770,-3.1745
9.2770,-3.1745
9.3852,-3.2035
9.4823,-3.2595
9.5615,-3.3387
9.5752,-3.3625
9.6201,-3.3970
9.6393,-3.3995
9.9590,-3.3995
10.0113,-3.3778
10.0273,-3.3538
10.0664,-3.2595
10.0901,-3.2024
10.1918,-3.0501
10.2050,-3.0303
10.3513,-2.8840
10.5234,-2.7691
10.7146,-2.6899
10.9175,-2.6495
10.9175,-2.6495
11.1245,-2.6495
11.1245,-2.6495
11.3274,-2.6899
11.5186,-2.7691
11.6907,-2.8840
11.8370,-3.0303
11.9519,-3.2024
12.0311,-3.3936
12.0715,-3.5965
12.0715,-3.8035
12.0311,-4.0064
11.9519,-4.1976
11.8370,-4.3697
11.6907,-4.5160
11.6737,-4.5273
11.5186,-4.6309
11.3274,-4.7101
11.3274,-4.7101
11.1745,-4.7405
11.1245,-4.7505
10.9175,-4.7505
10.8774,-4.7425
10.7146,-4.7101
10.7146,-4.7101
10.5234,-4.6309
10.3513,-4.5160
10.3513,-4.5160
10.2050,-4.3697
10.2050,-4.3697
10.0901,-4.1976
10.0830,-4.1805
10.0305,-4.0538
10.0273,-4.0462
9.9873,-4.0061
9.9590,-4.0005
9.3801,-4.0005
9.3609,-4.0030
9.2770,-4.0255
9.1650,-4.0255
9.1650,-4.0255
9.0568,-3.9965
9.0568,-3.9965
8.9597,-3.9405
8.8805,-3.8613
8.8245,-3.7642
8.8245,-3.7642
8.7955,-3.6560
5.7775,-3.6560
5.7775,-5.2460
5.7992,-5.2983
5.8515,-5.3200
6.0210,-5.3200
6.5210,-5.3200
6.7238,-5.3200
6.7834,-5.3264
6.7834,-5.3264
6.9181,-5.3766
6.9181,-5.3766
7.0332,-5.4628
7.1194,-5.5779
7.1194,-5.5779
7.1696,-5.7126
7.1696,-5.7126
7.1760,-5.7722
7.1760,-6.0000
6.5210,-6.0000
6.5210,-5.3200
6.0210,-5.3200
6.0210,-6.5000
6.5210,-6.5000
7.1760,-6.5000
7.1760,-6.7278
7.1696,-6.7874
7.1696,-6.7874
7.1466,-6.8491
7.1466,-6.9009
7.1696,-6.9626
7.1696,-6.9626
7.1760,-7.0222
7.1760,-7.2500
6.5210,-7.2500
6.5210,-6.5000
6.0210,-6.5000
6.0210,-7.4260
6.0427,-7.4783
6.0950,-7.5000
6.2710,-7.5000
6.2710,-7.6760
6.2927,-7.7283
6.3450,-7.7500
7.1760,-7.7500
7.1760,-7.9778
7.1696,-8.0374
7.1696,-8.0374
7.1277,-8.1496
7.1297,-8.2062
7.1712,-8.2448
7.1971,-8.2495
12.9255,-8.2495
Z" /> 
<path style="fill:#C83434; fill-opacity:1.0000; stroke:none;fill-rule:evenodd;"
d="M -9.8130,-3.4640
-9.8005,-3.4229
-9.8005,-2.9204
-9.7930,-2.8925
-9.7905,-2.8734
-9.7905,-2.1299
-9.7646,-2.0331
-9.7163,-1.9495
-9.7145,-1.9464
-9.6436,-1.8755
-9.5569,-1.8254
-9.4601,-1.7995
-9.4601,-1.7995
-9.4601,-1.7995
-9.3599,-1.7995
-9.3599,-1.7995
-9.2631,-1.8254
-9.1764,-1.8755
-9.1373,-1.9146
-9.0850,-1.9362
-9.0327,-1.9146
-8.9936,-1.8755
-8.9069,-1.8254
-8.8101,-1.7995
-8.8101,-1.7995
-8.8101,-1.7995
-8.7099,-1.7995
-8.7099,-1.7995
-8.6131,-1.8254
-8.5264,-1.8755
-8.4873,-1.9146
-8.4350,-1.9362
-8.3827,-1.9146
-8.3436,-1.8755
-8.2569,-1.8254
-8.1601,-1.7995
-8.1601,-1.7995
-8.1601,-1.7995
-8.0599,-1.7995
-8.0599,-1.7995
-7.9631,-1.8254
-7.8779,-1.8747
-7.8722,-1.8779
-7.8707,-1.8754
-7.8249,-1.8877
-7.7758,-1.8594
-7.7605,-1.8144
-7.7605,-1.6704
-7.7400,-1.5940
-7.7400,-1.5940
-7.7091,-1.5405
-7.7091,-1.5405
-7.7005,-1.5255
-7.7005,-1.5255
-5.8518,0.3232
-5.8301,0.3755
-5.8518,0.4278
-5.9041,0.4495
-6.9446,0.4495
-7.0210,0.4700
-7.0210,0.4700
-7.0721,0.4995
-7.0895,0.5095
-8.3505,1.7705
-8.3900,1.8390
-8.3900,1.8390
-8.3934,1.8515
-8.4279,1.8965
-8.4840,1.9039
-8.5172,1.8847
-8.5264,1.8755
-8.6131,1.8254
-8.6131,1.8254
-8.7099,1.7995
-8.7099,1.7995
-8.8101,1.7995
-8.8101,1.7995
-8.9069,1.8254
-8.9936,1.8755
-9.0327,1.9146
-9.0850,1.9362
-9.1373,1.9146
-9.1764,1.8755
-9.2631,1.8254
-9.2631,1.8254
-9.3599,1.7995
-9.3599,1.7995
-9.4601,1.7995
-9.4601,1.7995
-9.5569,1.8254
-9.6436,1.8755
-9.6436,1.8755
-9.7032,1.9351
-9.7556,1.9568
-9.8079,1.9351
-9.8296,1.8828
-9.8249,1.8569
-9.8064,1.8074
-9.8064,1.8074
-9.8000,1.7478
-9.8000,1.4500
-10.4000,1.4500
-10.4000,2.2060
-10.4217,2.2583
-10.4330,2.2630
-10.4500,2.2800
-10.4500,2.5260
-10.4717,2.5783
-10.5240,2.6000
-10.8760,2.6000
-10.9283,2.5783
-10.9500,2.5260
-10.9500,1.6440
-10.9283,1.5917
-10.9170,1.5870
-10.9000,1.5700
-10.9000,1.4500
-11.5000,1.4500
-11.5102,1.4602
-11.5625,1.4819
-11.6148,1.4602
-11.9778,1.0972
-11.9995,1.0449
-11.9995,0.6803
-12.0026,0.6646
-12.0051,0.6522
-11.5000,0.6522
-11.5000,0.9500
-10.9000,0.9500
-10.4000,0.9500
-9.8000,0.9500
-9.8000,0.6522
-9.8064,0.5926
-9.8064,0.5926
-9.8566,0.4579
-9.8566,0.4579
-9.9428,0.3428
-10.0579,0.2566
-10.0579,0.2566
-10.1926,0.2064
-10.1926,0.2064
-10.2522,0.2000
-10.4000,0.2000
-10.4000,0.9500
-10.9000,0.9500
-10.9000,0.2000
-11.0478,0.2000
-11.1074,0.2064
-11.1074,0.2064
-11.2421,0.2566
-11.2421,0.2566
-11.3572,0.3428
-11.4434,0.4579
-11.4434,0.4579
-11.4936,0.5926
-11.4936,0.5926
-11.5000,0.6522
-12.0051,0.6522
-12.0060,0.6474
-12.0111,0.6218
-12.0554,0.5554
-12.1005,0.5253
-12.1218,0.5111
-12.1218,0.5111
-12.1510,0.5053
-12.1803,0.4995
-12.6241,0.4995
-12.6764,0.4778
-12.6981,0.4255
-12.6764,0.3732
-12.6254,0.3222
-12.5731,0.3005
-12.4604,0.3005
-12.4604,0.3005
-12.3840,0.2800
-12.3155,0.2405
-12.2595,0.1845
-12.0105,-0.0645
-12.0105,-0.0645
-12.0076,-0.0683
-12.0055,-0.0667
-11.9673,-0.0960
-11.9482,-0.0985
-10.9094,-0.0985
-10.9094,-0.0985
-10.8330,-0.1190
-10.7645,-0.1585
-10.7085,-0.2145
-10.4452,-0.4778
-10.3929,-0.4995
-10.2803,-0.4995
-10.2803,-0.4995
-10.2218,-0.5111
-10.1554,-0.5554
-10.1111,-0.6218
-10.0995,-0.6803
-10.0995,-1.7197
-10.1111,-1.7782
-10.1427,-1.8254
-10.1591,-1.8500
-10.1701,-1.9055
-10.1386,-1.9526
-10.1258,-1.9594
-10.1218,-1.9611
-10.1218,-1.9611
-10.0554,-2.0054
-10.0111,-2.0718
-9.9995,-2.1303
-9.9995,-3.0697
-10.0111,-3.1282
-10.0554,-3.1946
-10.0554,-3.1946
-10.0578,-3.1981
-10.0689,-3.2537
-10.0374,-3.3007
-10.0004,-3.3254
-9.9561,-3.3918
-9.9471,-3.4373
-9.9156,-3.4844
-9.8601,-3.4954
Z" /> 
<path style="fill:#C83434; fill-opacity:1.0000; stroke:none;fill-rule:evenodd;"
d="M -1.7537,-8.2466
-1.7462,-8.2481
-1.7283,-8.2361
-1.7083,-8.2278
-1.7054,-8.2208
-1.6991,-8.2166
-1.6949,-8.1954
-1.6867,-8.1755
-1.6896,-8.1685
-1.6881,-8.1611
-1.7001,-8.1431
-1.7083,-8.1232
-1.7196,-8.1140
-1.7785,-8.0746
-1.7786,-8.0746
-1.8229,-8.0082
-1.8345,-7.9497
-1.8345,-7.8677
-1.8562,-7.8154
-1.8893,-7.7963
-1.9500,-7.7800
-1.9500,-7.7800
-2.0185,-7.7405
-2.3185,-7.4405
-2.3580,-7.3720
-2.3580,-7.3720
-2.3785,-7.2956
-2.3785,-3.1241
-2.3786,-3.1239
-2.3785,-3.1237
-2.3894,-3.0978
-2.4002,-3.0718
-2.4004,-3.0717
-2.4005,-3.0715
-2.4025,-3.0708
-2.4525,-3.0501
-2.4529,-3.0501
-2.4590,-3.0501
-2.4604,-3.0505
-2.5294,-3.0505
-2.5296,-3.0505
-2.5555,-3.0614
-2.5815,-3.0722
-2.7468,-3.2375
-2.7685,-3.2898
-2.7685,-3.7988
-2.7685,-3.7988
-2.7890,-3.8752
-2.7890,-3.8752
-2.8239,-3.9358
-2.8285,-3.9437
-2.8845,-3.9997
-3.1663,-4.2815
-3.2147,-4.3094
-3.2348,-4.3210
-3.2348,-4.3210
-3.2348,-4.3210
-3.3112,-4.3415
-3.3112,-4.3415
-4.0594,-4.3415
-4.1051,-4.3415
-4.1574,-4.3632
-4.1791,-4.4155
-4.1574,-4.4678
-4.1434,-4.4818
-4.0731,-4.5522
-3.8362,-4.7890
-3.7839,-4.8107
-3.7695,-4.8093
-3.6873,-4.7929
-3.6873,-4.7929
-3.5627,-4.7929
-3.5627,-4.7929
-3.4406,-4.8172
-3.3255,-4.8649
-3.2219,-4.9341
-3.1339,-5.0221
-3.0647,-5.1257
-3.0170,-5.2408
-2.9927,-5.3629
-2.9927,-5.4875
-3.0170,-5.6096
-3.0360,-5.6555
-3.0647,-5.7247
-3.0653,-5.7257
-3.1339,-5.8283
-3.2219,-5.9163
-3.2219,-5.9163
-3.2219,-5.9163
-3.2613,-5.9427
-3.2928,-5.9898
-3.2817,-6.0453
-3.2422,-6.0748
-3.0878,-6.1230
-2.9480,-6.2075
-2.8325,-6.3230
-2.7480,-6.4628
-2.6994,-6.6188
-2.6994,-6.6188
-2.6932,-6.6865
-2.6932,-6.6865
-2.6932,-6.7500
-3.4992,-6.7500
-3.4534,-6.7764
-3.4014,-6.8284
-3.3646,-6.8922
-3.3456,-6.9632
-3.3456,-7.0368
-3.3646,-7.1078
-3.4014,-7.1716
-3.4534,-7.2236
-3.4992,-7.2500
-3.3750,-7.2500
-2.6932,-7.2500
-2.6932,-7.3135
-2.6932,-7.3135
-2.6994,-7.3812
-2.6994,-7.3812
-2.7480,-7.5372
-2.8325,-7.6770
-2.9480,-7.7925
-3.0878,-7.8770
-3.2438,-7.9256
-3.2438,-7.9256
-3.3115,-7.9318
-3.3750,-7.9318
-3.3750,-7.2500
-3.4992,-7.2500
-3.5172,-7.2604
-3.5882,-7.2794
-3.6618,-7.2794
-3.7328,-7.2604
-3.7966,-7.2236
-3.8486,-7.1716
-3.8750,-7.1258
-3.8750,-7.9318
-3.9385,-7.9318
-3.9813,-7.9279
-4.0354,-7.9448
-4.0617,-7.9949
-4.0521,-8.0386
-4.0381,-8.0629
-4.0043,-8.1890
-4.0043,-8.1890
-4.0030,-8.1937
-4.0003,-8.1930
-3.9765,-8.2342
-3.9314,-8.2495
-1.7607,-8.2495
Z" /> 
<path style="fill:#C83434; fill-opacity:1.0000; stroke:none;fill-rule:evenodd;"
d="M -6.6908,-7.4584
-6.6691,-7.4061
-6.6816,-7.3649
-6.7253,-7.2995
-6.7730,-7.1844
-6.7730,-7.1844
-6.7785,-7.1568
-6.7973,-7.0623
-6.7973,-6.9377
-6.7922,-6.9120
-6.7730,-6.8156
-6.7730,-6.8156
-6.7253,-6.7005
-6.6574,-6.5988
-6.6561,-6.5969
-6.5681,-6.5089
-6.4645,-6.4397
-6.4645,-6.4397
-6.4645,-6.4397
-6.3555,-6.3945
-6.3494,-6.3920
-6.2273,-6.3677
-6.2273,-6.3677
-6.1027,-6.3677
-6.1027,-6.3677
-5.9806,-6.3920
-5.8655,-6.4397
-5.7619,-6.5089
-5.6739,-6.5969
-5.6047,-6.7005
-5.5984,-6.7157
-5.5583,-6.7557
-5.5017,-6.7557
-5.4616,-6.7157
-5.4570,-6.7045
-5.4553,-6.7005
-5.3874,-6.5988
-5.3861,-6.5969
-5.2981,-6.5089
-5.1945,-6.4397
-5.1945,-6.4397
-5.1945,-6.4397
-5.0855,-6.3945
-5.0794,-6.3920
-4.9573,-6.3677
-4.9573,-6.3677
-4.8327,-6.3677
-4.8327,-6.3677
-4.7106,-6.3920
-4.6291,-6.4257
-4.5955,-6.4397
-4.5955,-6.4397
-4.5955,-6.4397
-4.5833,-6.4478
-4.5278,-6.4588
-4.4807,-6.4274
-4.4789,-6.4245
-4.4175,-6.3230
-4.3020,-6.2075
-4.1622,-6.1230
-4.0078,-6.0748
-3.9643,-6.0386
-3.9591,-5.9822
-3.9887,-5.9427
-4.0281,-5.9163
-4.0281,-5.9163
-4.1161,-5.8283
-4.1853,-5.7247
-4.1916,-5.7095
-4.2317,-5.6695
-4.2883,-5.6695
-4.3284,-5.7095
-4.3347,-5.7247
-4.4039,-5.8283
-4.4039,-5.8283
-4.4919,-5.9163
-4.5066,-5.9261
-4.5955,-5.9855
-4.7106,-6.0332
-4.7106,-6.0332
-4.8026,-6.0515
-4.8327,-6.0575
-4.9573,-6.0575
-4.9808,-6.0528
-5.0794,-6.0332
-5.0794,-6.0332
-5.1945,-5.9855
-5.2981,-5.9163
-5.3861,-5.8283
-5.4053,-5.7996
-5.4327,-5.7586
-5.4798,-5.7271
-5.4942,-5.7257
-7.5125,-5.7257
-7.5649,-5.7474
-8.0140,-6.1965
-8.0825,-6.2360
-8.0825,-6.2360
-8.1589,-6.2565
-8.1589,-6.2565
-8.4955,-6.2565
-8.5478,-6.2782
-8.5695,-6.3305
-8.5695,-6.3755
-8.5478,-6.4278
-8.4955,-6.4495
-7.8893,-6.4495
-7.8893,-6.4495
-7.8128,-6.4700
-7.7443,-6.5095
-7.6884,-6.5655
-6.7955,-7.4584
-6.7431,-7.4801
Z" /> 
</g> 
</svg>
